# xmcd CD database file
#
# Track frame offsets:
#	150
#	10974
#	23213
#	35503
#	52175
#	61903
#	75644
#	87163
#	98344
#	110831
#	126922
#	139722
#	149571
#
# Disc length: 2229 seconds
#
# Revision: 0
# Processed by: cddbd v1.4PL0 Copyright (c) Steve Scherf et al.
# Submitted via: CDex 1.40Release
#
DISCID=b008b30d
DTITLE=Mark Remington - Generations
DYEAR=2002
DGENRE=Country
TTITLE0=Mr. Moon Over Texas
TTITLE1=God Knows I Love Her
TTITLE2=The Leader of the Red Oak Band
TTITLE3=I Like Her There
TTITLE4=The Candy Store
TTITLE5=Gat a Letter from My Kid Today
TTITLE6=Texas Moonbeam Waltz
TTITLE7=Yearning
TTITLE8=South of the Border
TTITLE9=Melody
TTITLE10=You Only Have to Be So Tall
TTITLE11=Ricochet Rag
TTITLE12=White Mountain
EXTD=YEAR: 2002 ID3G: 2
EXTT0=
EXTT1=
EXTT2=
EXTT3=
EXTT4=
EXTT5=
EXTT6=
EXTT7=
EXTT8=
EXTT9=
EXTT10=
EXTT11=
EXTT12=
PLAYORDER=
